<svg width="100" height="100" xmlns="http://www.w3.org/2000/svg">
  <defs>
    <linearGradient id="grad1" x1="0%" y1="0%" x2="100%" y2="100%">
      <stop offset="0%" style="stop-color:#34D399;stop-opacity:1" />
      <stop offset="100%" style="stop-color:#10B981;stop-opacity:1" />
    </linearGradient>
  </defs>
  <path d="M0 20 H20 V0 M20 20 H0 M20 20 V40 H40 V20 M40 40 H20 M40 40 V60 H60 V40 M60 60 H40 M60 60 V80 H80 V60 M80 80 H60 M80 80 V100 H100" stroke="url(#grad1)" stroke-width="2" fill="none"/>
  <circle cx="20" cy="20" r="4" fill="#34D399"/>
  <circle cx="40" cy="40" r="4" fill="#34D399"/>
  <circle cx="60" cy="60" r="4" fill="#34D399"/>
  <circle cx="80" cy="80" r="4" fill="#34D399"/>
  <path d="M50 0 V20 H70 V0 M70 20 H50 M70 20 V40 H90 V20 M90 40 H70" stroke="url(#grad1)" stroke-width="2" fill="none" opacity="0.6"/>
</svg>